<?xml version="1.0" encoding="utf-8"?>
<!-- Generator: Adobe Illustrator 18.0.0, SVG Export Plug-In . SVG Version: 6.00 Build 0)  -->
<!DOCTYPE svg PUBLIC "-//W3C//DTD SVG 1.1//EN" "http://www.w3.org/Graphics/SVG/1.1/DTD/svg11.dtd">
<svg version="1.1" id="Layer_1" xmlns="http://www.w3.org/2000/svg" xmlns:xlink="http://www.w3.org/1999/xlink" x="0px" y="0px"
	 viewBox="0 0 25 25" enable-background="new 0 0 25 25" xml:space="preserve">
<path fill="#00ADEE" d="M23.8,16.3c0,1.2-0.4,2.3-1.3,3.2s-1.9,1.3-3.2,1.3H6.5c-1.4,0-2.7-0.5-3.7-1.5c-1-1-1.5-2.3-1.5-3.7
	c0-1,0.3-2,0.8-2.8c0.6-0.9,1.3-1.5,2.2-1.9c0-0.2,0-0.4,0-0.5C4.3,8.6,4.8,7.2,6,6s2.6-1.8,4.2-1.8c1.2,0,2.4,0.3,3.4,1
	c1,0.7,1.7,1.6,2.2,2.7c0.5-0.5,1.2-0.7,1.9-0.7c0.8,0,1.5,0.3,2.1,0.9s0.9,1.3,0.9,2.1c0,0.6-0.2,1.1-0.5,1.6
	c1,0.2,1.8,0.8,2.5,1.6C23.4,14.3,23.8,15.2,23.8,16.3z"/>
</svg>
