<?xml version="1.0" encoding="utf-8"?>
<!-- Generator: Adobe Illustrator 18.0.0, SVG Export Plug-In . SVG Version: 6.00 Build 0)  -->
<!DOCTYPE svg PUBLIC "-//W3C//DTD SVG 1.1//EN" "http://www.w3.org/Graphics/SVG/1.1/DTD/svg11.dtd">
<svg version="1.1" id="Layer_1" xmlns="http://www.w3.org/2000/svg" xmlns:xlink="http://www.w3.org/1999/xlink" x="0px" y="0px"
	 viewBox="0 0 25 25" enable-background="new 0 0 25 25" xml:space="preserve">
<path fill="#00ADEE" d="M23.8,4.6v12.8c0,0.5-0.2,1-0.6,1.3c-0.4,0.4-0.8,0.6-1.3,0.6h-6.4c0,0.3,0.1,0.6,0.2,0.9
	c0.1,0.3,0.2,0.6,0.4,0.8c0.1,0.2,0.2,0.4,0.2,0.5c0,0.2-0.1,0.4-0.2,0.5c-0.1,0.1-0.3,0.2-0.5,0.2h-6c-0.2,0-0.4-0.1-0.5-0.2
	c-0.1-0.1-0.2-0.3-0.2-0.5c0-0.1,0.1-0.3,0.2-0.5c0.1-0.2,0.2-0.5,0.4-0.8c0.1-0.3,0.2-0.6,0.2-0.9H3.1c-0.5,0-1-0.2-1.3-0.6
	c-0.4-0.4-0.6-0.8-0.6-1.3V4.6c0-0.5,0.2-1,0.6-1.3c0.4-0.4,0.8-0.6,1.3-0.6h18.8c0.5,0,1,0.2,1.3,0.6C23.6,3.7,23.8,4.1,23.8,4.6z
	 M22.2,14.4V4.6c0-0.1,0-0.2-0.1-0.3c-0.1-0.1-0.2-0.1-0.3-0.1H3.1c-0.1,0-0.2,0-0.3,0.1C2.8,4.4,2.8,4.5,2.8,4.6v9.8
	c0,0.1,0,0.2,0.1,0.3c0.1,0.1,0.2,0.1,0.3,0.1h18.8c0.1,0,0.2,0,0.3-0.1C22.2,14.6,22.2,14.5,22.2,14.4z"/>
</svg>
