<?xml version="1.0" encoding="utf-8"?>
<!-- Generator: Adobe Illustrator 18.0.0, SVG Export Plug-In . SVG Version: 6.00 Build 0)  -->
<!DOCTYPE svg PUBLIC "-//W3C//DTD SVG 1.1//EN" "http://www.w3.org/Graphics/SVG/1.1/DTD/svg11.dtd">
<svg version="1.1" id="Layer_1" xmlns="http://www.w3.org/2000/svg" xmlns:xlink="http://www.w3.org/1999/xlink" x="0px" y="0px"
	 viewBox="0 0 25 25" enable-background="new 0 0 25 25" xml:space="preserve">
<path fill="#00ADEE" d="M17,4.3c2,0,3.9,0.5,5.6,1.5l1.8,14.9c-1,0-2-0.2-3-0.7c-1.6-0.7-3.1-1.1-4.6-1.1c-1.8,0-3.2,0.6-4.4,1.7
	C11.3,19.5,9.9,19,8.1,19c-1.5,0-3,0.4-4.6,1.1c-1,0.4-2,0.7-3,0.7H0.5L2.3,5.8c1.7-1,3.6-1.5,5.6-1.5c1.8,0,3.3,0.4,4.5,1.2
	C13.7,4.7,15.2,4.3,17,4.3L17,4.3z M12.5,18.6c1.3-0.8,2.8-1.3,4.4-1.3c1,0,1.9,0.1,2.7,0.3c0.8,0.2,1.8,0.6,3,1.1l-1.5-12
	c-1.3-0.6-2.8-0.9-4.3-0.9c-1.8,0-3.2,0.6-4.4,1.7c-1.2-1.1-2.6-1.7-4.4-1.7c-1.5,0-3,0.3-4.3,0.9l-1.5,12c0.8-0.3,1.5-0.6,1.9-0.8
	c0.5-0.2,1.1-0.3,1.7-0.5c0.7-0.1,1.4-0.2,2.1-0.2C9.7,17.4,11.2,17.8,12.5,18.6L12.5,18.6z M17.4,17L16.7,6.3
	c-1.6,0-3.1,0.6-4.2,1.8c-1.2-1.2-2.6-1.8-4.4-1.8c-1.4,0-2.7,0.3-3.9,0.8l-1.3,11c1-0.4,1.9-0.7,2.7-0.9c0.8-0.2,1.7-0.3,2.6-0.3
	c1.6,0,3.1,0.4,4.4,1.2c1.3-0.8,2.8-1.2,4.4-1.2L17.4,17z"/>
<text transform="matrix(1 0 0 1 11.5939 14.4648)" fill="#00ADEE" font-family="'ProximaNova-Regular'" font-size="7"> </text>
</svg>
