<?xml version="1.0" encoding="utf-8"?>
<!-- Generator: Adobe Illustrator 18.0.0, SVG Export Plug-In . SVG Version: 6.00 Build 0)  -->
<!DOCTYPE svg PUBLIC "-//W3C//DTD SVG 1.1//EN" "http://www.w3.org/Graphics/SVG/1.1/DTD/svg11.dtd">
<svg version="1.1" id="Layer_1" xmlns="http://www.w3.org/2000/svg" xmlns:xlink="http://www.w3.org/1999/xlink" x="0px" y="0px"
	 viewBox="0 0 25 25" enable-background="new 0 0 25 25" xml:space="preserve">
<path fill="#00ADEE" d="M8.4,2.8C9.7,2.3,11.1,2,12.5,2c1.4,0,2.8,0.3,4.1,0.8c1.3,0.6,2.4,1.3,3.4,2.2s1.7,2.1,2.2,3.4
	c0.6,1.3,0.8,2.7,0.8,4.1c0,1.4-0.3,2.8-0.8,4.1c-0.6,1.3-1.3,2.4-2.2,3.4s-2.1,1.7-3.4,2.2c-1.3,0.6-2.7,0.8-4.1,0.8
	c-1.4,0-2.8-0.3-4.1-0.8c-1.3-0.6-2.4-1.3-3.4-2.2s-1.7-2.1-2.2-3.4C2.3,15.3,2,13.9,2,12.5c0-1.4,0.3-2.8,0.8-4.1
	C3.4,7.1,4.1,6,5.1,5.1S7.1,3.4,8.4,2.8z M4.6,16.7l2.3-2.3c-0.2-0.6-0.3-1.3-0.3-2c0-0.7,0.1-1.3,0.3-2L4.6,8.3
	C3.9,9.6,3.5,11,3.5,12.5C3.5,14,3.9,15.4,4.6,16.7z M9.3,15.7c0.9,0.9,1.9,1.3,3.2,1.3s2.3-0.4,3.2-1.3s1.3-1.9,1.3-3.2
	s-0.4-2.3-1.3-3.2S13.7,8,12.5,8s-2.3,0.4-3.2,1.3S8,11.3,8,12.5S8.4,14.8,9.3,15.7z M16.7,4.6c-1.3-0.7-2.7-1.1-4.2-1.1
	c-1.5,0-2.9,0.4-4.2,1.1l2.3,2.3c0.6-0.2,1.3-0.3,2-0.3c0.7,0,1.3,0.1,2,0.3L16.7,4.6L16.7,4.6z M8.3,20.4c1.3,0.7,2.7,1.1,4.2,1.1
	c1.5,0,2.9-0.4,4.2-1.1l-2.3-2.3c-0.6,0.2-1.3,0.3-2,0.3c-0.7,0-1.3-0.1-2-0.3L8.3,20.4L8.3,20.4z M18.2,14.5l2.3,2.3
	c0.7-1.3,1.1-2.7,1.1-4.2c0-1.5-0.4-2.9-1.1-4.2l-2.3,2.3c0.2,0.6,0.3,1.3,0.3,2C18.5,13.2,18.4,13.8,18.2,14.5z"/>
</svg>
