<?xml version="1.0" encoding="utf-8"?>
<!-- Generator: Adobe Illustrator 18.0.0, SVG Export Plug-In . SVG Version: 6.00 Build 0)  -->
<!DOCTYPE svg PUBLIC "-//W3C//DTD SVG 1.1//EN" "http://www.w3.org/Graphics/SVG/1.1/DTD/svg11.dtd">
<svg version="1.1" id="Layer_1" xmlns="http://www.w3.org/2000/svg" xmlns:xlink="http://www.w3.org/1999/xlink" x="0px" y="0px"
	 viewBox="0 0 25 25" enable-background="new 0 0 25 25" xml:space="preserve">
<path fill="#00ADEE" d="M24.5,20v1.5h-24v-18H2V20H24.5z M23,5.4v5.1c0,0.2-0.1,0.3-0.2,0.3c-0.2,0.1-0.3,0-0.4-0.1l-1.4-1.4
	l-7.4,7.4c-0.1,0.1-0.2,0.1-0.3,0.1c-0.1,0-0.2,0-0.3-0.1L10.3,14l-4.9,4.9l-2.2-2.2L10,9.8c0.1-0.1,0.2-0.1,0.3-0.1
	c0.1,0,0.2,0,0.3,0.1l2.7,2.7l5.4-5.4l-1.4-1.4c-0.1-0.1-0.2-0.3-0.1-0.4C17.3,5.1,17.4,5,17.5,5h5.1c0.1,0,0.2,0,0.3,0.1
	S23,5.3,23,5.4z"/>
</svg>
