<?xml version="1.0" encoding="utf-8"?>
<!-- Generator: Adobe Illustrator 18.0.0, SVG Export Plug-In . SVG Version: 6.00 Build 0)  -->
<!DOCTYPE svg PUBLIC "-//W3C//DTD SVG 1.1//EN" "http://www.w3.org/Graphics/SVG/1.1/DTD/svg11.dtd">
<svg version="1.1" id="Layer_1" xmlns="http://www.w3.org/2000/svg" xmlns:xlink="http://www.w3.org/1999/xlink" x="0px" y="0px"
	 viewBox="0 0 25 25" enable-background="new 0 0 25 25" xml:space="preserve">
<path fill="#00ADEE" d="M22.8,11.7c0.2,0.3,0.2,0.5,0.2,0.8c0,0.3-0.1,0.5-0.2,0.8c-1.1,1.8-2.6,3.2-4.4,4.3
	c-1.8,1.1-3.8,1.6-5.9,1.6c-2.1,0-4-0.5-5.9-1.6c-1.8-1.1-3.3-2.5-4.4-4.3C2.1,13,2,12.8,2,12.5c0-0.3,0.1-0.5,0.2-0.8
	c1.1-1.8,2.6-3.2,4.4-4.3c1.8-1.1,3.8-1.6,5.9-1.6c2.1,0,4,0.5,5.9,1.6C20.2,8.5,21.7,9.9,22.8,11.7L22.8,11.7z M21.5,12.5
	c-1.2-1.8-2.7-3.2-4.5-4.1c0.5,0.8,0.7,1.7,0.7,2.6c0,1.4-0.5,2.7-1.5,3.7c-1,1-2.3,1.5-3.7,1.5c-1.4,0-2.7-0.5-3.7-1.5
	c-1-1-1.5-2.3-1.5-3.7c0-0.9,0.2-1.8,0.7-2.6c-1.8,0.9-3.3,2.3-4.5,4.1c1,1.6,2.3,2.9,3.9,3.8c1.6,0.9,3.3,1.4,5.1,1.4
	s3.5-0.5,5.1-1.4C19.2,15.4,20.5,14.1,21.5,12.5z M12.5,8.6c0.2,0,0.3-0.1,0.4-0.2C13,8.3,13.1,8.2,13.1,8c0-0.2-0.1-0.3-0.2-0.4
	c-0.1-0.1-0.2-0.2-0.4-0.2c-1,0-1.8,0.3-2.5,1c-0.7,0.7-1,1.5-1,2.5c0,0.2,0.1,0.3,0.2,0.4c0.1,0.1,0.2,0.2,0.4,0.2
	c0.2,0,0.3-0.1,0.4-0.2c0.1-0.1,0.2-0.2,0.2-0.4c0-0.7,0.2-1.2,0.7-1.7C11.3,8.8,11.8,8.6,12.5,8.6L12.5,8.6z"/>
</svg>
