<?xml version="1.0" encoding="utf-8"?>
<!-- Generator: Adobe Illustrator 18.1.1, SVG Export Plug-In . SVG Version: 6.00 Build 0)  -->
<!DOCTYPE svg PUBLIC "-//W3C//DTD SVG 1.1//EN" "http://www.w3.org/Graphics/SVG/1.1/DTD/svg11.dtd">
<svg version="1.1" id="Layer_1" xmlns="http://www.w3.org/2000/svg" xmlns:xlink="http://www.w3.org/1999/xlink" x="0px" y="0px"
	 viewBox="0 0 27.3 27.3" enable-background="new 0 0 27.3 27.3" xml:space="preserve">
<g>
	<g>
		<g>
			<defs>
				<path id="SVGID_198_" d="M27,13.6L27,13.6c0-7.4-6-13.4-13.4-13.4S0.3,6.3,0.3,13.6S6.3,27,13.6,27S27,21,27,13.6z"/>
			</defs>
			<use xlink:href="#SVGID_198_"  overflow="visible" fill-rule="evenodd" clip-rule="evenodd" fill="#134368"/>
			<clipPath id="SVGID_1_">
				<use xlink:href="#SVGID_198_"  overflow="visible"/>
			</clipPath>
			<g clip-path="url(#SVGID_1_)">
				<defs>
					<rect id="SVGID_200_" x="0.3" y="0.3" width="26.7" height="26.7"/>
				</defs>
				<clipPath id="SVGID_3_">
					<use xlink:href="#SVGID_200_"  overflow="visible"/>
				</clipPath>
			</g>
		</g>
	</g>
	<path fill="#ffffff" d="M14.4,11.7h1.7l-0.2,1.9h-1.5v5.5h-2.3v-5.5H11v-1.9h1.1v-1.1c0-0.8,0.2-1.4,0.6-1.8c0.4-0.4,1-0.6,1.9-0.6
		h1.5V10h-1c-0.2,0-0.3,0-0.4,0c-0.1,0-0.2,0.1-0.2,0.2c0,0.1-0.1,0.2-0.1,0.2c0,0.1,0,0.2,0,0.3V11.7z"/>
</g>
</svg>
