<?xml version="1.0" encoding="utf-8"?>
<!-- Generator: Adobe Illustrator 18.1.1, SVG Export Plug-In . SVG Version: 6.00 Build 0)  -->
<!DOCTYPE svg PUBLIC "-//W3C//DTD SVG 1.1//EN" "http://www.w3.org/Graphics/SVG/1.1/DTD/svg11.dtd">
<svg version="1.1" id="Layer_1" xmlns="http://www.w3.org/2000/svg" xmlns:xlink="http://www.w3.org/1999/xlink" x="0px" y="0px"
	 viewBox="0 0 28.9 27.3" enable-background="new 0 0 28.9 27.3" xml:space="preserve">
<g>
	<g>
		<g>
			<defs>
				<path id="SVGID_194_" d="M27.8,13.6L27.8,13.6c0-7.4-6-13.4-13.4-13.4S1.1,6.3,1.1,13.6S7.1,27,14.5,27S27.8,21,27.8,13.6z"/>
			</defs>
			<use xlink:href="#SVGID_194_"  overflow="visible" fill-rule="evenodd" clip-rule="evenodd" fill="#FFFFFF"/>
			<clipPath id="SVGID_1_">
				<use xlink:href="#SVGID_194_"  overflow="visible"/>
			</clipPath>
			<g clip-path="url(#SVGID_1_)">
				<defs>
					<rect id="SVGID_196_" x="1.1" y="0.3" width="26.7" height="26.7"/>
				</defs>
				<clipPath id="SVGID_3_">
					<use xlink:href="#SVGID_196_"  overflow="visible"/>
				</clipPath>
			</g>
		</g>
	</g>
	<path fill="#0C4368" d="M18.4,11.1c0.4,0,0.8-0.2,1.2-0.3c-0.3,0.4-0.7,0.8-1.1,1.1c0,0.1,0,0.2,0,0.3c0,0.6-0.1,1.2-0.3,1.7
		c-0.2,0.6-0.4,1.1-0.8,1.7c-0.3,0.5-0.8,1-1.2,1.4c-0.5,0.4-1.1,0.7-1.7,1c-0.7,0.2-1.4,0.4-2.2,0.4c-1.2,0-2.3-0.3-3.3-1
		c0.2,0,0.3,0,0.5,0c1,0,1.9-0.3,2.7-0.9c-0.5,0-0.9-0.2-1.3-0.4c-0.4-0.3-0.6-0.6-0.8-1.1c0.1,0,0.3,0,0.4,0c0.2,0,0.4,0,0.6-0.1
		c-0.5-0.1-0.9-0.4-1.2-0.7c-0.3-0.4-0.5-0.9-0.5-1.4v0c0.3,0.2,0.6,0.3,1,0.3c-0.3-0.2-0.5-0.5-0.7-0.8c-0.2-0.3-0.3-0.7-0.3-1
		c0-0.4,0.1-0.8,0.3-1.1c0.5,0.7,1.2,1.2,2,1.6c0.8,0.4,1.6,0.6,2.5,0.7c0-0.2-0.1-0.3-0.1-0.5c0-0.6,0.2-1.1,0.6-1.5
		c0.4-0.4,0.9-0.6,1.5-0.6c0.6,0,1.2,0.2,1.6,0.7c0.5-0.1,0.9-0.3,1.4-0.5C19.2,10.4,18.9,10.8,18.4,11.1L18.4,11.1z"/>
</g>
</svg>
