<?xml version="1.0" encoding="utf-8"?>
<!-- Generator: Adobe Illustrator 18.1.1, SVG Export Plug-In . SVG Version: 6.00 Build 0)  -->
<!DOCTYPE svg PUBLIC "-//W3C//DTD SVG 1.1//EN" "http://www.w3.org/Graphics/SVG/1.1/DTD/svg11.dtd">
<svg version="1.1" id="Layer_1" xmlns="http://www.w3.org/2000/svg" xmlns:xlink="http://www.w3.org/1999/xlink" x="0px" y="0px"
	 viewBox="0 0 27.3 27.3" enable-background="new 0 0 27.3 27.3" xml:space="preserve">
<g>
	<g>
		<defs>
			<path id="SVGID_202_" d="M27,13.6L27,13.6c0-7.4-6-13.4-13.4-13.4S0.3,6.3,0.3,13.6S6.3,27,13.6,27S27,21,27,13.6z"/>
		</defs>
		<use xlink:href="#SVGID_202_"  overflow="visible" fill-rule="evenodd" clip-rule="evenodd" fill="#134368"/>
		<clipPath id="SVGID_1_">
			<use xlink:href="#SVGID_202_"  overflow="visible"/>
		</clipPath>
		<g clip-path="url(#SVGID_1_)">
			<defs>
				<rect id="SVGID_204_" x="0.3" y="0.3" width="26.7" height="26.7"/>
			</defs>
			<clipPath id="SVGID_3_">
				<use xlink:href="#SVGID_204_"  overflow="visible"/>
			</clipPath>
		</g>
	</g>
</g>
<path fill="#ffffff" d="M10.8,10.1c0,0.3-0.1,0.6-0.3,0.8c-0.2,0.2-0.5,0.3-0.9,0.3h0c-0.4,0-0.7-0.1-0.9-0.3
	c-0.2-0.2-0.3-0.5-0.3-0.8c0-0.3,0.1-0.6,0.3-0.8C8.9,9.1,9.2,9,9.5,9c0.4,0,0.7,0.1,0.9,0.3C10.7,9.5,10.8,9.8,10.8,10.1z
	 M10.6,12.2v6.7H8.4v-6.7H10.6z M18.6,15v3.8h-2.2v-3.6c0-0.5-0.1-0.8-0.3-1.1c-0.2-0.3-0.5-0.4-0.8-0.4c-0.3,0-0.5,0.1-0.7,0.2
	c-0.2,0.2-0.3,0.3-0.4,0.6c0,0.1-0.1,0.3-0.1,0.5v3.7h-2.2c0-1.8,0-3.2,0-4.3c0-1.1,0-1.8,0-2l0-0.3h2.2v1h0
	c0.1-0.1,0.2-0.3,0.3-0.4c0.1-0.1,0.2-0.2,0.4-0.3c0.2-0.1,0.4-0.2,0.6-0.3c0.2-0.1,0.5-0.1,0.8-0.1c0.8,0,1.4,0.3,1.8,0.8
	C18.4,13.3,18.6,14.1,18.6,15z"/>
</svg>
