<?xml version="1.0" encoding="utf-8"?>
<!-- Generator: Adobe Illustrator 18.0.0, SVG Export Plug-In . SVG Version: 6.00 Build 0)  -->
<!DOCTYPE svg PUBLIC "-//W3C//DTD SVG 1.1//EN" "http://www.w3.org/Graphics/SVG/1.1/DTD/svg11.dtd">
<svg version="1.1" id="Layer_1" xmlns="http://www.w3.org/2000/svg" xmlns:xlink="http://www.w3.org/1999/xlink" x="0px" y="0px"
	 viewBox="0 0 210 55" enable-background="new 0 0 210 55" xml:space="preserve">
<g>
	<ellipse fill="#28AAE1" cx="182.6" cy="27.5" rx="26.2" ry="25.8"/>
	<g>
		<path fill="#28AAE1" d="M1.3,13.3h21.1v5.2H7.5v6h13.6v4.8H7.5v6.9h15.2v5.2H1.3V13.3z"/>
		<path fill="#28AAE1" d="M36.8,41.9c-1.2,3.3-3.2,4.6-7,4.6c-1.1,0-2.3-0.1-3.4-0.2v-4.6c1.1,0.1,2.2,0.2,3.3,0.2
			c1.9-0.2,1.2-1.5,0.5-3.1l-6.5-17.7h6l4.6,14h0.1l4.5-14h5.8L36.8,41.9z"/>
		<path fill="#28AAE1" d="M50.3,32.6c0.2,3.5,1.9,5.2,5,5.2c2.2,0,4.1-1.4,4.4-2.6h4.9c-1.6,4.8-4.9,6.9-9.5,6.9
			c-6.4,0-10.4-4.4-10.4-10.7c0-6.1,4.2-10.8,10.4-10.8c6.9,0,10.3,5.8,9.9,12.1H50.3z M59.4,29.1c-0.5-2.8-1.7-4.3-4.5-4.3
			c-3.6,0-4.6,2.8-4.7,4.3H59.4z"/>
		<g>
			<path fill="#005480" d="M87.7,22.7c-0.4-2.8-3.1-4.9-6.2-4.9c-5.6,0-7.7,4.7-7.7,9.7c0,4.7,2.1,9.4,7.7,9.4
				c3.8,0,5.9-2.6,6.4-6.3h6c-0.6,7-5.5,11.5-12.4,11.5c-8.7,0-13.8-6.5-13.8-14.6c0-8.4,5.1-14.9,13.8-14.9
				c6.2,0,11.4,3.6,12.1,10.1H87.7z"/>
		</g>
		<g>
			<path fill="#005480" d="M96.6,27.3c0.3-5.2,5-6.8,9.6-6.8c4.1,0,9,0.9,9,5.8v10.6c0,1.9,0.2,3.7,0.7,4.5h-5.7
				c-0.2-0.6-0.4-1.3-0.4-2c-1.8,1.9-4.4,2.5-6.9,2.5c-3.9,0-6.9-1.9-6.9-6.1c0-4.6,3.5-5.7,6.9-6.2c3.4-0.5,6.6-0.4,6.6-2.7
				c0-2.4-1.7-2.8-3.6-2.8c-2.1,0-3.5,0.9-3.7,3.1H96.6z M109.5,31.5c-0.9,0.8-2.9,0.9-4.7,1.2c-1.7,0.4-3.3,0.9-3.3,3
				c0,2.1,1.6,2.6,3.4,2.6c4.4,0,4.5-3.5,4.5-4.7V31.5z"/>
		</g>
		<g>
			<path fill="#005480" d="M117.9,21.1h5.3v3.8h0.1c1-2.6,3.8-4.3,6.5-4.3c0.4,0,0.9,0.1,1.2,0.2v5.2c-0.5-0.1-1.3-0.2-2-0.2
				c-4.1,0-5.5,3-5.5,6.5v9.2h-5.6V21.1z"/>
		</g>
		<g>
			<path fill="#005480" d="M137.1,32.6c0.2,3.5,1.9,5.2,5,5.2c2.2,0,4.1-1.4,4.4-2.6h4.9c-1.6,4.8-4.9,6.9-9.5,6.9
				c-6.4,0-10.4-4.4-10.4-10.7c0-6.1,4.2-10.8,10.4-10.8c6.9,0,10.3,5.8,9.9,12.1H137.1z M146.2,29.1c-0.5-2.8-1.7-4.3-4.5-4.3
				c-3.5,0-4.6,2.8-4.7,4.3H146.2z"/>
		</g>
	</g>
	<g>
		<path fill="#FFFFFF" d="M166.3,37.4v-20h9.4c4.3,0,6.7,2.9,6.7,6.4c0,3.5-2.4,6.5-6.7,6.5h-5.1v7.1H166.3z M178,23.9
			c0-1.7-1.3-2.7-2.9-2.7h-4.5v5.4h4.5C176.8,26.6,178,25.5,178,23.9z"/>
		<path fill="#FFFFFF" d="M183.5,37.4v-20h7.9c6.3,0,10.2,4,10.2,10c0,6-3.9,10-10.2,10H183.5z M197.3,27.5c0-3.5-1.7-6.3-5.8-6.3
			h-3.6v12.5h3.6C195.4,33.7,197.3,30.8,197.3,27.5z"/>
	</g>
</g>
</svg>
