<?xml version="1.0" encoding="utf-8"?>
<!-- Generator: Adobe Illustrator 18.0.0, SVG Export Plug-In . SVG Version: 6.00 Build 0)  -->
<!DOCTYPE svg PUBLIC "-//W3C//DTD SVG 1.1//EN" "http://www.w3.org/Graphics/SVG/1.1/DTD/svg11.dtd">
<svg version="1.1" id="Layer_1" xmlns="http://www.w3.org/2000/svg" xmlns:xlink="http://www.w3.org/1999/xlink" x="0px" y="0px"
	 viewBox="0 0 207.4 51.7" enable-background="new 0 0 207.4 51.7" xml:space="preserve">
<g>
	<ellipse fill="#28AAE1" cx="177.4" cy="25.8" rx="24.9" ry="24.6"/>
	<g>
		<path fill="#00ADEE" d="M5.2,12.3h20v4.9H11.1V23h13v4.6h-13v6.6h14.4v4.9H5.2V12.3z"/>
		<path fill="#00ADEE" d="M38.9,39.5c-1.2,3.1-3,4.4-6.7,4.4c-1.1,0-2.2-0.1-3.3-0.2v-4.4c1,0.1,2.1,0.2,3.1,0.2
			c1.8-0.2,1.1-1.4,0.5-3l-6.2-16.8h5.7L36.5,33h0.1l4.2-13.3h5.5L38.9,39.5z"/>
		<path fill="#00ADEE" d="M51.8,30.7c0.2,3.4,1.8,4.9,4.8,4.9c2.1,0,3.9-1.3,4.2-2.5h4.7c-1.5,4.6-4.7,6.5-9.1,6.5
			c-6.1,0-9.9-4.2-9.9-10.2c0-5.8,4-10.2,9.9-10.2c6.6,0,9.8,5.5,9.4,11.5H51.8z M60.4,27.3c-0.5-2.7-1.6-4.1-4.2-4.1
			c-3.4,0-4.3,2.6-4.4,4.1H60.4z"/>
		<g>
			<path fill="#00ADEE" d="M87.3,21.3c-0.4-2.7-2.9-4.7-5.8-4.7c-5.3,0-7.3,4.5-7.3,9.2c0,4.5,2,9,7.3,9c3.6,0,5.6-2.5,6.1-6h5.7
				c-0.6,6.7-5.2,10.9-11.8,10.9c-8.3,0-13.2-6.2-13.2-13.9c0-7.9,4.9-14.1,13.2-14.1c5.9,0,10.8,3.4,11.5,9.6H87.3z"/>
		</g>
		<g>
			<path fill="#00ADEE" d="M95.7,25.7c0.3-5,4.8-6.5,9.1-6.5c3.9,0,8.5,0.9,8.5,5.5v10.1c0,1.8,0.2,3.5,0.7,4.3h-5.4
				c-0.2-0.6-0.3-1.2-0.4-1.9c-1.7,1.8-4.2,2.4-6.5,2.4c-3.7,0-6.6-1.8-6.6-5.8c0-4.4,3.3-5.4,6.6-5.9c3.3-0.5,6.3-0.4,6.3-2.5
				c0-2.3-1.6-2.6-3.4-2.6c-2,0-3.3,0.8-3.5,2.9H95.7z M108,29.6c-0.9,0.8-2.8,0.8-4.4,1.1c-1.6,0.3-3.1,0.9-3.1,2.8
				c0,2,1.5,2.5,3.3,2.5c4.2,0,4.3-3.3,4.3-4.5V29.6z"/>
		</g>
		<g>
			<path fill="#00ADEE" d="M115.9,19.7h5.1v3.6h0.1c1-2.4,3.6-4.1,6.2-4.1c0.4,0,0.8,0.1,1.2,0.2v4.9c-0.5-0.1-1.3-0.2-1.9-0.2
				c-3.9,0-5.2,2.8-5.2,6.2v8.7h-5.3V19.7z"/>
		</g>
		<g>
			<path fill="#00ADEE" d="M134.2,30.7c0.1,3.4,1.8,4.9,4.8,4.9c2.1,0,3.9-1.3,4.2-2.5h4.7c-1.5,4.6-4.7,6.5-9.1,6.5
				c-6.1,0-9.9-4.2-9.9-10.2c0-5.8,4-10.2,9.9-10.2c6.6,0,9.8,5.5,9.4,11.5H134.2z M142.9,27.3c-0.5-2.7-1.6-4.1-4.2-4.1
				c-3.4,0-4.3,2.6-4.4,4.1H142.9z"/>
		</g>
	</g>
	<g>
		<path fill="#FFFFFF" d="M162,35.3v-19h8.9c4.1,0,6.4,2.8,6.4,6.1c0,3.3-2.3,6.1-6.4,6.1H166v6.8H162z M173.1,22.4
			c0-1.6-1.2-2.6-2.8-2.6H166V25h4.3C171.9,25,173.1,24,173.1,22.4z"/>
		<path fill="#FFFFFF" d="M178.3,35.3v-19h7.5c6,0,9.7,3.8,9.7,9.5c0,5.7-3.7,9.5-9.7,9.5H178.3z M191.4,25.8c0-3.4-1.6-6-5.5-6
			h-3.4v11.9h3.4C189.6,31.7,191.4,29,191.4,25.8z"/>
	</g>
</g>
</svg>
