<svg xmlns="http://www.w3.org/2000/svg" xmlns:xlink="http://www.w3.org/1999/xlink" version="1.1" x="0px" y="0px" width="210.294px" height="60.648px" viewBox="0 0 210.294 60.648" enable-background="new 0 0 210.294 60.648" xml:space="preserve"><g><polygon fill="#1E6FEC" points="32.9,45.4 36.3,60.6 29.1,60.6 25.2,41"/><g><g><path fill="#1E6FEC" d="M3.826 60.538c0.052 0 0.1 0 0.1 0.011l2.576 0.083l0.507-2.526 c0.618-3.063 3.341-5.29 6.47-5.29c0.379 0 0.8 0 1.2 0.105l4.116 0.724l-0.574-4.14c-0.08-0.598-0.122-1.188-0.122-1.76 c0-0.864 0.087-1.708 0.252-2.524l0.005-0.022c0.137-0.674 0.341-1.32 0.579-1.947c0.033-0.091 0.063-0.185 0.1-0.276 c0.237-0.585 0.522-1.142 0.838-1.677c0.065-0.107 0.128-0.215 0.194-0.32c0.333-0.526 0.7-1.027 1.103-1.497 c0.061-0.072 0.126-0.139 0.191-0.209c0.901-1.001 1.951-1.862 3.119-2.536c0.033-0.019 0.063-0.039 0.094-0.057 c0.576-0.326 1.183-0.602 1.806-0.835c0.076-0.03 0.15-0.057 0.228-0.083c0.615-0.218 1.247-0.39 1.899-0.511 c0.085-0.015 0.174-0.026 0.259-0.039c0.67-0.111 1.353-0.181 2.049-0.181s1.379 0.1 2 0.2 c0.087 0 0.2 0 0.3 0.039c0.65 0.1 1.3 0.3 1.9 0.511c0.076 0 0.2 0.1 0.2 0.1 c0.626 0.2 1.2 0.5 1.8 0.835c0.031 0 0.1 0 0.1 0.059c1.168 0.7 2.2 1.5 3.1 2.5 c0.063 0.1 0.1 0.1 0.2 0.205c0.403 0.5 0.8 1 1.1 1.503c0.065 0.1 0.1 0.2 0.2 0.3 c0.318 0.5 0.6 1.1 0.8 1.688c0.033 0.1 0.1 0.2 0.1 0.259c0.239 0.6 0.4 1.3 0.6 1.958l0.007 0 c0.163 0.8 0.3 1.6 0.3 2.508c0 0.572-0.044 1.162-0.124 1.76l-0.574 4.14l4.116-0.724 c0.389-0.07 0.776-0.105 1.155-0.105c3.13 0 5.9 2.2 6.5 5.29l0.507 2.526l5.558 0.015c0-3.75-0.75-5.935-0.75-5.935 c-1.71-4.281-5.675-7.344-10.294-7.894c-0.124-2.524-0.75-4.916-1.777-7.085l-0.002-0.026c-0.048-0.104-0.117-0.194-0.167-0.296 c-0.289-0.579-0.607-1.14-0.951-1.682c-0.122-0.192-0.242-0.383-0.372-0.572c-0.428-0.624-0.881-1.227-1.379-1.795 c-0.063-0.07-0.13-0.131-0.193-0.202c-0.478-0.528-0.988-1.024-1.521-1.494c-0.122-0.107-0.243-0.215-0.367-0.32 c-1.229-1.031-2.591-1.901-4.057-2.595c-0.115-0.055-0.23-0.109-0.346-0.161c-1.462-0.655-3.021-1.125-4.651-1.388 c-0.183-0.03-0.365-0.057-0.55-0.082c-0.805-0.105-1.619-0.179-2.452-0.179c-0.833 0-1.647 0.073-2.452 0.2 c-0.185 0.025-0.366 0.052-0.55 0.082c-1.631 0.263-3.189 0.733-4.651 1.388c-0.117 0.052-0.23 0.107-0.344 0.2 c-1.466 0.692-2.828 1.564-4.059 2.597c-0.124 0.104-0.244 0.211-0.366 0.318c-0.533 0.47-1.044 0.966-1.521 1.5 c-0.061 0.07-0.131 0.131-0.192 0.202c-0.498 0.568-0.951 1.172-1.379 1.795c-0.129 0.189-0.25 0.379-0.374 0.6 c-0.341 0.541-0.659 1.098-0.944 1.673c-0.052 0.106-0.122 0.198-0.172 0.304l-0.002 0.028c-1.025 2.167-1.655 4.561-1.777 7.1 c-4.62 0.55-8.584 3.613-10.294 7.9"/><path fill="#1E6FEC" d="M17.803 4.536h0.167l6.626 32.137c0.574-0.322 1.17-0.596 1.79-0.827c0.076-0.03 0.152-0.057 0.228-0.083 c0.615-0.218 1.249-0.39 1.897-0.511c0.087-0.015 0.174-0.026 0.261-0.039c0.452-0.074 0.914-0.092 1.377-0.122L22.423 0h-9.071 L0 60.633h6.55L17.803 4.536z"/></g></g><path fill="#394047" d="M75.872 41.705h-3.785l4.196-22.777h4.858l4.196 22.777h-3.785l-0.694-5.048h-4.291L75.872 41.705z M77.135 33.25h3.155l-1.546-9.78h-0.063L77.135 33.25z"/><path fill="#394047" d="M88.709 22.335h-3.785v-3.407h11.484v3.407h-3.786v19.37h-3.912V22.335z"/><path fill="#394047" d="M115.332 18.928v22.777h-3.407V23.912h-0.063l-3.533 17.793h-1.893l-3.533-17.793h-0.063v17.793h-3.407 V18.928h5.142l2.777 13.313h0.063l2.776-13.313H115.332z"/><path fill="#394047" d="M118.292 24.448c0-3.217 1.892-5.836 5.994-5.836c4.102 0 6 2.6 6 5.836v11.736 c0 3.219-1.892 5.837-5.994 5.837c-4.102 0-5.994-2.618-5.994-5.837V24.448z M122.203 36.09c0 1.7 0.5 2.5 2.1 2.5 c1.578 0 2.082-0.82 2.082-2.523V24.543c0-1.704-0.505-2.524-2.082-2.524c-1.577 0-2.082 0.821-2.082 2.524V36.09z"/><path fill="#394047" d="M140.875 24.543c-0.158-1.956-1.198-2.524-2.082-2.524c-1.262 0-1.956 0.821-1.956 2.2 c0 3.9 8 5.7 8 11.925c0 3.754-2.524 5.837-6.183 5.837c-3.628 0-5.71-2.902-5.868-6.309l3.723-0.537 c0.158 2.3 1.1 3.4 2.3 3.439c1.357 0 2.271-0.726 2.271-2.082c0-4.511-7.95-5.71-7.95-12.24 c0-3.628 2.208-5.679 6.057-5.679c3.187 0 5.1 2.3 5.4 5.52L140.875 24.543z"/><path fill="#394047" d="M147.434 41.705V18.928h10.916v3.407h-7.003v5.867h5.236v3.407h-5.236v10.095H147.434z"/><path fill="#394047" d="M161.121 41.705V18.928h10.474v3.407h-6.561v5.867h5.048v3.407h-5.048v6.688h7.003v3.407H161.121z"/><path fill="#394047" d="M178.406 41.705h-3.912V18.928h5.489c4.385 0 6.6 1.9 6.6 6.72c0 3.659-1.42 5.141-2.745 5.7 l3.312 10.316h-3.975l-2.776-9.433c-0.505 0.063-1.326 0.095-2.019 0.095V41.705z M178.406 29.148h1.388 c2.114 0 2.903-0.788 2.903-3.501s-0.789-3.502-2.903-3.502h-1.388V29.148z"/><path fill="#394047" d="M190.169 41.705V18.928h3.912v22.777H190.169z"/><path fill="#394047" d="M210.294 43.409c-1.452 0-2.587-0.252-3.975-2.114c-0.852 0.474-1.924 0.726-3.186 0.7 c-4.102 0-5.994-2.618-5.994-5.837V24.448c0-3.217 1.892-5.836 5.994-5.836s5.994 2.6 6 5.836v11.736 c0 1.073-0.22 2.082-0.662 2.935c0.884 0.8 1.4 0.9 1.8 0.883V43.409z M203.416 33.565c0.41 0.2 1 0.5 1.8 1.4 V24.543c0-1.704-0.505-2.524-2.082-2.524c-1.577 0-2.082 0.821-2.082 2.524V36.09c0 1.7 0.5 2.5 2.1 2.5 c0.6 0 1.041-0.125 1.325-0.347c-0.441-0.82-0.789-1.041-1.041-1.23V33.565z"/></g><g></g></svg>