<?xml version="1.0" encoding="utf-8"?>
<!-- Generator: Adobe Illustrator 18.0.0, SVG Export Plug-In . SVG Version: 6.00 Build 0)  -->
<!DOCTYPE svg PUBLIC "-//W3C//DTD SVG 1.1//EN" "http://www.w3.org/Graphics/SVG/1.1/DTD/svg11.dtd">
<svg version="1.1" id="Layer_1" xmlns="http://www.w3.org/2000/svg" xmlns:xlink="http://www.w3.org/1999/xlink" x="0px" y="0px"
	 viewBox="0 0 127.8 127.8" enable-background="new 0 0 127.8 127.8" xml:space="preserve">
<g>
	<circle fill="#D22A27" cx="63.9" cy="63.9" r="63.9"/>
	<path fill="#FFFFFF" d="M25.3,33.9c0.3,0.5,0.5,0.8,1.3,2.3c1.1,2,2.9,4.7,3.2,5.1c0.3,0.4,0.4,0.7,0.2,1.1
		c-0.3,0.6-2.6,6.1-2.6,20.8c0,22.1,3.4,27.6,6.9,33.2s6.8,6.4,6.8,6.4s0.5,0.3,0.2,0.3c-0.1,0-2.7,0.2-5.4-2.2
		c-4.7-4.2-11.1-13.5-13.4-35.7c0,0-1-11.4,0.4-23.4C23.9,33.2,24.9,33.1,25.3,33.9z"/>
	<path fill="#FFFFFF" d="M53.2,73.1c0.2-3.2-0.6-4.5-1-5c-0.5-0.5-0.5-0.2-0.5-0.2l0.1,0.1c0.6,0.4,1.1,1.5,1.1,4
		c0,3.4-1.7,7.5-2.1,8.2s-0.9,1.1-1.1,1.1c-0.5,0-0.8-0.5-0.8-0.5c-2.6-2.7-3.1-9.1-1.8-17.5c1.5-9.2,0.2-12.6,0-13.2
		c-0.1-0.4-0.3-0.6-0.4-0.7c-0.1-0.1-0.6,0.1-0.6,0.1c-0.7,0.3-2.3,1.8-5.2,7s-4.8,11.3-4.8,11.3L36,67.9c0,0,0.3-3.8,0.3-8.2
		s-0.8-7-0.9-7.1c-0.1-0.2-0.7-1.3-1.4-1.1c-0.7,0.2-1,0.7-1.1,1c-0.2,0.3-0.3,0.7-0.3,0.7S33.5,57,33,65.7
		c-0.3,4.9-0.1,9.1,0.4,12.5c0.5,3.5,2.5,4.7,3.1,5.2c1.2,0.9,2.1,0.7,2.4,0.7c0.4,0,0-0.5,0-0.5s-1.3-1.5-2-3.9
		c-0.7-2.5-0.9-6.3-0.9-7.4c0-1.2,0.2-2.7,0.2-2.7c2.5-8.2,7.5-16.4,7.5-16.4c0.2,1.8,0.4,2.3-0.2,11c-0.6,8.7,0.7,15.1,3,16.7
		c2.4,1.7,3.2,1,3.5,0.8c0.2-0.1,0.8-0.5,1.3-1.4C52.5,78.4,53.1,75.5,53.2,73.1z"/>
	<path fill="#FFFFFF" d="M109.9,55.8c-5-2.1-8.1-2.4-8.1-2.4l0-0.2c0,0,0.7-2.4,1.3-7.9c0.7-5.5-0.3-10.1-3-13.7
		c-2.7-3.7-4.8-3.8-5.5-3.7c-0.7,0.1-0.2,0.8-0.2,0.8c2.9,4,4,7.1,4.6,12.2c0.6,5.1-0.9,11.8-1,12.1c-0.1,0.3-0.1,0.4-0.2,0.2
		c-0.1-0.1-0.4-0.7-0.4-0.7c-2-4-3.8-6.1-4.7-6.7s-2.5-1.2-3.1-0.6c-0.8,0.8-3,6.3-3.2,6.7c-0.2,0.4-0.4,0.3-0.4,0.3
		c-2-0.2-5.7-0.4-6.3-0.4c-0.5,0-0.4-0.7-0.4-0.7s0.9-9.3,1.2-12.1c0.6-4.5,0.3-5-0.2-5.2c-0.9-0.4-1.3-0.8-2.4-2.1
		c-1.5-1.7-1.6-2.2-1.9-2.8c-0.5-0.9-1.2-0.7-1.1-0.2c0.1,0.4,0.4,3.3,0.7,7.1c0.4,5.5-0.4,15.5-0.4,15.8C75.3,52,75,52,75,52
		l-5.9,0.2c-0.5-6.3-1.6-6.3-2.1-6.4c-0.9-0.2-1.3,0.2-1.4,0.4c-0.8,1.8-2.4,4.2-4.4,7.2c-1.9,3-4.3,6.5-4.3,6.5l-0.1-0.1
		c0,0-0.4-8.1-1.2-13.9c-1-6.8-4.5-14.5-4.5-14.5c-0.9-1.9-1.6-1.8-2.7-2.3c-2.4-1.2-4.1-2.4-4.9-3.5c-0.5-0.6-0.7-0.3-0.8-0.1
		c0,0.1,0,0.2,0,0.3c0.3,1.5,1.8,3.6,3,5.7c1.4,2.5,2.6,5.2,2.6,5.2s7.7,14.7,5.8,38.9c-1.8,22.4,4.4,23.6,6.2,24
		c1.8,0.4,1.9-0.4,1.9-0.4l-0.5-0.2c-4.4-2-5.1-10.9-4.8-19.6c0.3-8.7,0.2-14,0.2-14.5s0.1-0.7,0.1-0.7c3,5.6,8.6,3.1,8.6,3.1
		s-0.8,4.4-1.7,8.2c-0.9,3.8,0.3,8.3,3.7,8.3c3,0,5.2-5.8,5.2-5.8c-0.2,0-0.2,0.3-0.2,0.3c-1.2,2.6-3.6,4.9-4,4.9s-1.9-1.2-1.9-5.4
		c0-4.1,3.3-12.3,3.7-13.6c0.4-1.3,0.8-2.8,0.1-2.8c-0.6,0-0.9,0.7-0.9,0.7s-2,3.5-5.4,4.8c-3.4,1.2-5.5-1.2-5.5-1.2s1,0.2,1.3,0.3
		c2.5,0.3,5.6-2.1,7.2-5.1c1.5-3,1.7-6.3,1.7-6.3c0-0.5,0.4-0.5,0.4-0.5c0.9-0.2,4.5-0.4,5.1-0.4s0.5,0.6,0.5,0.6l-0.7,9.5
		c-1,22.6,1.1,25.3,1.7,26.5c0.6,1.2,3.2,5.1,5.2,3.1c1.7-1.5,3.3-6,3.3-8.6c0-3.3-0.6-4.5-1-5c-0.5-0.5-0.5-0.2-0.5-0.2l0.1,0.1
		c0.6,0.4,1.1,1.5,1.1,4c0,4.2-1.7,7-2.7,8.3c-0.3,0.4-0.5,0.6-0.6,0.7c-0.6,0.6-2-1.3-2.3-1.9C75.7,85.3,76.5,78.7,77,74
		c0.5-5.1,2-18.2,2.1-19.2c0.1-1,0-1.1,0.8-1.3c0.8-0.3,4.5,0,5.3,0c0.8,0,0.7,0.2,0.7,0.2c-1.5,4.7-4.3,12.7-3.2,17.9
		c1.2,5.3,4.4,6.1,5.1,6.1c0.7,0.1,1.8-0.6,3.4-2.5c1.6-1.8,2.6-3.8,2.6-3.8l0.1,0.1c-3.1,15.3-2.1,19.8-1.2,22.4
		C93.2,96,94.2,98,97,98c5.3,0,8.8-11,8.8-15c0-4-0.9-5.8-1.6-6.4c-0.7-0.6-0.8-0.2-0.8-0.2l0.1,0.3c0.9,0.5,1.7,1.9,1.7,4.9
		c0,7.7-4.1,13.3-6.2,14.8c-0.7,0.5-4,2.6-4.7-5.3c-0.7-7.9,1.8-14.8,3.6-21.7c1.8-6.8,3.2-13,3.3-13.6c0.1-0.6,0.4-0.5,0.4-0.5
		c1.4-0.1,4,0.5,7.9,1.5c4,1,8.5,3.6,8.5,3.6l0.1-0.1C118,60.4,114.9,57.9,109.9,55.8z M65.2,57.7c-0.9,3.8-2.7,5.8-3.9,6.9
		c-0.8,0.7-2,0.6-3.1-0.4c-0.1-0.1-0.6-0.5-0.7-0.8c-0.3-0.5-0.5-0.8-0.2-1.9c0.6-1.9,4-6.3,7.3-11.6c0,0,0.9-0.7,1.2,2.7
		c-0.9,0.1-0.9,0.1-1.2,0.2c-2.6,0.6-2.4,1.8-2.1,2.1c0.3,0.3,0.5,0.5,1.9-0.1c0.6-0.2,0.7-0.3,1.4-0.4
		C65.6,55.4,65.5,56.5,65.2,57.7z M93.3,47.6c1.3,1.3,2.9,3.9,3.7,5.5c-3.2-0.3-5.5-0.5-7.2-0.7C91.5,49,93.3,47.6,93.3,47.6z
		 M97.4,56.3l-1.9,8.6l0-0.1c0,0-0.4-1.8-0.6-2.6c-0.2-0.8-0.9-1.4-1.3-0.9c-0.4,0.4-0.1,0.8,0,0.9s0.6,1.1,0.6,1.1
		c2.5,5.4-4.9,12.9-4.9,12.9c-1.5,1.6-2.5,1.6-3.6-2.8c-1.3-4.8,1-11.5,2.8-17.5c0.2-0.8,0.5-1.6,0.8-2.3c3.5,0.3,6.3,0.6,8.3,0.8
		c0,0.3,0.1,0.5,0.1,0.7C97.6,55.5,97.4,56.3,97.4,56.3z"/>
</g>
</svg>
