<svg xmlns="http://www.w3.org/2000/svg" xmlns:xlink="http://www.w3.org/1999/xlink" version="1.1" x="0px" y="0px" width="52px" height="52px" viewBox="0 0 52 52" enable-background="new 0 0 52 52" xml:space="preserve"><g><g><polygon fill="#1E6FEC" points="28.2,39 31.1,52 25,52 21.6,35.2"/><g><g><path fill="#1E6FEC" d="M3.28 51.906c0.044 0 0.1 0 0.1 0.009l2.209 0.072l0.435-2.166 c0.53-2.626 2.864-4.535 5.548-4.535c0.325 0 0.7 0 1 0.09l3.529 0.621l-0.492-3.55 c-0.068-0.513-0.105-1.019-0.105-1.509c0-0.741 0.075-1.465 0.216-2.165l0.005-0.019c0.117-0.578 0.292-1.131 0.497-1.669 c0.029-0.078 0.054-0.159 0.086-0.236c0.203-0.501 0.448-0.979 0.719-1.438c0.056-0.092 0.11-0.184 0.167-0.274 c0.286-0.451 0.6-0.881 0.946-1.284c0.052-0.062 0.108-0.119 0.163-0.179c0.773-0.858 1.673-1.596 2.674-2.174 c0.029-0.016 0.054-0.033 0.081-0.049c0.494-0.279 1.014-0.516 1.549-0.716c0.065-0.025 0.129-0.049 0.195-0.072 c0.527-0.187 1.07-0.335 1.628-0.438c0.073-0.013 0.149-0.022 0.222-0.033c0.574-0.095 1.16-0.156 1.757-0.156 c0.597 0 1.2 0.1 1.8 0.156c0.075 0 0.1 0 0.2 0.033c0.557 0.1 1.1 0.3 1.6 0.4 c0.065 0 0.1 0 0.2 0.072c0.536 0.2 1.1 0.4 1.5 0.716c0.027 0 0.1 0 0.1 0.1 c1.001 0.6 1.9 1.3 2.7 2.174c0.054 0.1 0.1 0.1 0.2 0.176c0.346 0.4 0.7 0.8 0.9 1.3 c0.056 0.1 0.1 0.2 0.2 0.267c0.273 0.5 0.5 0.9 0.7 1.447c0.029 0.1 0.1 0.1 0.1 0.2 c0.205 0.5 0.4 1.1 0.5 1.679l0.006 0.033c0.14 0.7 0.2 1.4 0.2 2.15c0 0.49-0.038 0.997-0.106 1.5 l-0.492 3.55l3.529-0.621c0.333-0.06 0.665-0.09 0.99-0.09c2.684 0 5 1.9 5.5 4.535l0.435 2.166L52 52 c0-3.215-0.643-5.089-0.643-5.089c-1.466-3.671-4.865-6.297-8.826-6.768c-0.106-2.165-0.643-4.215-1.523-6.075l-0.002-0.022 c-0.041-0.089-0.1-0.167-0.143-0.254c-0.247-0.497-0.52-0.977-0.816-1.443c-0.105-0.165-0.208-0.328-0.319-0.49 c-0.367-0.535-0.755-1.052-1.182-1.539c-0.054-0.06-0.111-0.113-0.165-0.173c-0.41-0.452-0.847-0.878-1.304-1.281 c-0.105-0.092-0.208-0.184-0.314-0.275c-1.054-0.884-2.222-1.63-3.478-2.225c-0.098-0.047-0.197-0.094-0.297-0.138 c-1.254-0.562-2.59-0.965-3.988-1.19c-0.157-0.025-0.313-0.049-0.471-0.071c-0.69-0.09-1.389-0.153-2.103-0.153 c-0.714 0-1.412 0.063-2.103 0.153c-0.159 0.021-0.314 0.045-0.471 0.071c-1.398 0.225-2.734 0.628-3.988 1.2 c-0.1 0.045-0.197 0.091-0.295 0.138c-1.257 0.593-2.425 1.341-3.48 2.226c-0.106 0.089-0.209 0.181-0.314 0.3 c-0.457 0.403-0.895 0.828-1.305 1.281c-0.052 0.06-0.113 0.113-0.165 0.173c-0.427 0.487-0.816 1.005-1.182 1.5 c-0.111 0.162-0.214 0.325-0.32 0.492c-0.292 0.463-0.565 0.941-0.809 1.435c-0.044 0.091-0.105 0.17-0.148 0.26l-0.002 0 c-0.879 1.858-1.419 3.91-1.523 6.073c-3.961 0.471-7.36 3.098-8.826 6.8"/><path fill="#1E6FEC" d="M15.265 3.889h0.143l5.681 27.554c0.492-0.276 1.003-0.511 1.535-0.709 c0.065-0.025 0.13-0.049 0.195-0.072c0.527-0.187 1.071-0.335 1.627-0.438c0.075-0.013 0.149-0.022 0.224-0.033 c0.387-0.064 0.784-0.079 1.181-0.105L19.226 0h-7.777L0 51.987h5.616L15.265 3.889z"/></g></g></g></g><g></g></svg>